<svg width="1739" height="56" viewBox="0 0 1739 56" fill="none" xmlns="http://www.w3.org/2000/svg">
<path d="M0 14V55.5L1739 48.5V10H1719.5L1697.5 8L1642.5 20.5H1586.5L1405.5 10H1387H1371.5H1348L1319 20.5H1266H1209L1178.5 17L1152 0L1092 14L1058 10L1045 8L1016.5 14H992.5L956.5 17L932.5 14H911.5H893H866.5H836H819.5H791L758 0H702.5L635.5 17L605.5 20.5L575 26L543 17H523L473.5 20.5L436 17H426.5H412L387.5 20.5L374 17H370.5H368H359.5L341.5 20.5H333.5H321H307L289 17H281L263.5 20.5H254.5L223 17L182.5 14H175H165L142 17L127.5 20.5L90.5 17L79 14H61.5L24.5 17L0 14Z" fill="#EDE8DD"/>
</svg>
