<svg width="104" height="157" viewBox="0 0 104 157" fill="none" xmlns="http://www.w3.org/2000/svg">
<g clip-path="url(#clip0_655_607)">
<path d="M50.5888 0.992939V155.989C50.5888 156.252 50.4858 156.505 50.3026 156.691C50.1194 156.877 49.8708 156.982 49.6117 156.982H0.977057C0.786869 156.98 0.601187 156.923 0.44273 156.816C0.284272 156.709 0.159959 156.558 0.0850389 156.38C0.0101189 156.202 -0.0121802 156.006 0.0209329 155.816C0.054046 155.626 0.141129 155.449 0.271449 155.309L44.8532 107.32C44.9846 107.179 45.072 107.001 45.1045 106.808C45.137 106.616 45.1132 106.419 45.0361 106.241C44.9589 106.062 44.8318 105.911 44.6706 105.805C44.5094 105.7 44.3212 105.645 44.1295 105.647H0.977057C0.786805 105.651 0.599749 105.597 0.439637 105.493C0.279526 105.388 0.153632 105.238 0.0779712 105.061C0.00231059 104.883 -0.0197055 104.687 0.0147487 104.497C0.0492029 104.306 0.138567 104.131 0.271449 103.993L44.8532 56.0045C44.9846 55.8626 45.072 55.6845 45.1045 55.4925C45.137 55.3005 45.1132 55.103 45.0361 54.9246C44.9589 54.7463 44.8318 54.5949 44.6706 54.4894C44.5094 54.3839 44.3212 54.3289 44.1295 54.3314H0.977057C0.786869 54.3302 0.601187 54.2726 0.44273 54.1657C0.284272 54.0588 0.159959 53.9073 0.0850389 53.7296C0.0101189 53.552 -0.0121802 53.356 0.0209329 53.1657C0.054046 52.9754 0.141129 52.799 0.271449 52.6582L48.9061 0.312629C49.0406 0.169876 49.214 0.071173 49.404 0.0291599C49.5941 -0.0128533 49.7922 0.00373172 49.9729 0.0767975C50.1537 0.149863 50.3088 0.27609 50.4185 0.439298C50.5282 0.602506 50.5875 0.79529 50.5888 0.992939Z" fill="#F7F7F0"/>
<path d="M72.1197 41.2219V19.5078L71.4321 14.856C71.4219 14.7816 71.4273 14.7059 71.4479 14.6337C71.4685 14.5616 71.5039 14.4947 71.5517 14.4374C71.5995 14.3801 71.6587 14.3337 71.7254 14.3013C71.7921 14.2689 71.8648 14.2512 71.9387 14.2493H79.9541C80.0272 14.2485 80.0995 14.2638 80.1662 14.2942C80.2329 14.3245 80.2924 14.3692 80.3405 14.4251C80.3887 14.481 80.4243 14.5468 80.4451 14.618C80.4658 14.6892 80.4711 14.7642 80.4607 14.8377L79.8274 19.5078V28.4802C79.8274 28.6168 79.8808 28.7477 79.9758 28.8443C80.0708 28.9408 80.1997 28.9951 80.334 28.9951H95.0076C95.142 28.9951 95.2708 28.9408 95.3659 28.8443C95.4609 28.7477 95.5142 28.6168 95.5142 28.4802V19.5078L94.8448 14.856C94.8317 14.7827 94.8344 14.7073 94.8528 14.6352C94.8711 14.563 94.9047 14.4957 94.9511 14.438C94.9976 14.3803 95.0558 14.3336 95.1218 14.301C95.1878 14.2684 95.26 14.2508 95.3333 14.2493H103.349C103.422 14.2485 103.494 14.2638 103.561 14.2942C103.627 14.3245 103.687 14.3692 103.735 14.4251C103.783 14.481 103.819 14.5468 103.84 14.618C103.86 14.6892 103.866 14.7642 103.855 14.8377L103.222 19.5078V41.277L103.855 45.9472C103.866 46.0207 103.86 46.0956 103.84 46.1668C103.819 46.238 103.783 46.3038 103.735 46.3597C103.687 46.4156 103.627 46.4603 103.561 46.4906C103.494 46.521 103.422 46.5363 103.349 46.5355H95.4238C95.3512 46.5368 95.2793 46.5216 95.2133 46.4911C95.1472 46.4607 95.0887 46.4156 95.042 46.3593C94.9952 46.303 94.9613 46.2367 94.9428 46.1655C94.9244 46.0942 94.9218 46.0196 94.9353 45.9472L95.6047 41.2954V35.5405C95.6047 35.404 95.5513 35.2731 95.4563 35.1765C95.3613 35.08 95.2325 35.0257 95.0981 35.0257H80.4245C80.2901 35.0257 80.1613 35.08 80.0663 35.1765C79.9713 35.2731 79.9178 35.404 79.9178 35.5405V41.277L80.5511 45.9472C80.5616 46.0207 80.5562 46.0956 80.5355 46.1668C80.5148 46.238 80.4791 46.3038 80.431 46.3597C80.3828 46.4156 80.3234 46.4603 80.2567 46.4906C80.19 46.521 80.1176 46.5363 80.0445 46.5355H71.9026C71.8295 46.5363 71.7571 46.521 71.6904 46.4906C71.6237 46.4603 71.5642 46.4156 71.5161 46.3597C71.468 46.3038 71.4323 46.238 71.4116 46.1668C71.3908 46.0956 71.3855 46.0207 71.3959 45.9472L72.0835 41.2954" fill="#F7F7F0"/>
<path d="M88.277 131.664L81.1845 132.51C81.1135 132.517 81.0418 132.51 80.9739 132.487C80.906 132.465 80.8436 132.428 80.7906 132.38C80.7377 132.331 80.6954 132.272 80.6666 132.205C80.6378 132.139 80.6232 132.067 80.6236 131.995V123.445C80.6211 123.377 80.6324 123.309 80.6569 123.245C80.6815 123.181 80.7188 123.124 80.7663 123.075C80.8139 123.027 80.8707 122.989 80.9334 122.964C80.996 122.939 81.063 122.928 81.1302 122.93H88.8922C92.728 122.93 94.3202 124.07 94.3202 126.755C94.3202 129.752 92.149 131.186 88.2951 131.664H88.277ZM94.7363 136.646C94.6896 136.581 94.6589 136.505 94.6466 136.425C94.6342 136.345 94.6407 136.263 94.6653 136.186C94.69 136.109 94.7323 136.039 94.7886 135.981C94.845 135.924 94.9139 135.881 94.9896 135.856C96.9448 135.222 98.6499 133.971 99.8572 132.284C101.064 130.598 101.711 128.564 101.702 126.479C101.702 121.607 98.0835 116.918 89.9235 116.918H72.753C72.6799 116.917 72.6075 116.933 72.5408 116.963C72.4741 116.993 72.4147 117.038 72.3666 117.094C72.3184 117.15 72.2828 117.215 72.262 117.287C72.2413 117.358 72.236 117.433 72.2464 117.506L72.934 122.158V143.891L72.2464 148.597C72.236 148.671 72.2413 148.746 72.262 148.817C72.2828 148.888 72.3184 148.954 72.3666 149.01C72.4147 149.066 72.4741 149.111 72.5408 149.141C72.6075 149.171 72.6799 149.187 72.753 149.186H80.8588C80.9319 149.187 81.0042 149.171 81.071 149.141C81.1377 149.111 81.1971 149.066 81.2453 149.01C81.2934 148.954 81.3291 148.888 81.3498 148.817C81.3705 148.746 81.3759 148.671 81.3654 148.597L80.6416 143.891V139.055C80.6404 138.93 80.6838 138.809 80.7636 138.715C80.8435 138.62 80.9545 138.558 81.0759 138.54L86.5039 137.731C86.5976 137.716 86.6937 137.728 86.7805 137.768C86.8672 137.807 86.9409 137.871 86.9924 137.952L92.0585 145.159C92.0718 145.232 92.0718 145.307 92.0585 145.38L92.6194 148.763C92.6469 148.88 92.7113 148.985 92.8028 149.061C92.8943 149.137 93.0078 149.181 93.126 149.186H102.426C102.519 149.186 102.609 149.16 102.689 149.111C102.768 149.063 102.832 148.993 102.875 148.91C102.918 148.826 102.938 148.732 102.932 148.638C102.926 148.545 102.895 148.454 102.842 148.377L94.7363 136.646Z" fill="#F7F7F0"/>
<path d="M91.4614 71.6327H99.4767L103.439 72.0556C103.515 72.0619 103.592 72.0508 103.663 72.0229C103.734 71.995 103.798 71.9512 103.85 71.8946C103.903 71.838 103.941 71.7702 103.964 71.6962C103.987 71.6222 103.993 71.5439 103.982 71.4672L103.24 65.9513C103.199 65.8346 103.118 65.7368 103.011 65.676C102.905 65.6152 102.781 65.5954 102.661 65.6204H72.4996C72.3742 65.6197 72.2529 65.6663 72.1593 65.7512C72.0658 65.8361 72.0065 65.9533 71.993 66.0801L71.3055 71.5959C71.2938 71.6743 71.3001 71.7544 71.3239 71.8299C71.3476 71.9054 71.3882 71.9744 71.4425 72.0313C71.4968 72.0883 71.5633 72.1317 71.6368 72.1582C71.7104 72.1847 71.7889 72.1937 71.8664 72.1843L75.7565 71.7614H83.7356V92.6665L83.1023 97.3366C83.0919 97.4101 83.0972 97.4851 83.1179 97.5563C83.1387 97.6275 83.1743 97.6933 83.2225 97.7492C83.2706 97.8051 83.33 97.8498 83.3967 97.8801C83.4634 97.9104 83.5358 97.9258 83.6089 97.925H91.6242C91.6973 97.9258 91.7697 97.9104 91.8364 97.8801C91.9031 97.8498 91.9626 97.8051 92.0107 97.7492C92.0588 97.6933 92.0945 97.6275 92.1152 97.5563C92.1359 97.4851 92.1413 97.4101 92.1308 97.3366L91.4614 92.6665V71.6327Z" fill="#F7F7F0"/>
</g>
<defs>
<clipPath id="clip0_655_607">
<rect width="104" height="157" fill="white"/>
</clipPath>
</defs>
</svg>
